<?xml version="1.0" encoding="UTF-8" standalone="no"?>
<!DOCTYPE svg PUBLIC "-//W3C//DTD SVG 1.1//EN"
 "http://www.w3.org/Graphics/SVG/1.1/DTD/svg11.dtd">
<!-- Generated by graphviz version 2.36.0 (20140111.2315)
 -->
<!-- Title: G Pages: 1 -->
<svg width="394pt" height="2392pt"
 viewBox="0.00 0.00 394.00 2392.00" xmlns="http://www.w3.org/2000/svg" xmlns:xlink="http://www.w3.org/1999/xlink">
<g id="graph0" class="graph" transform="scale(1 1) rotate(0) translate(4 2388)">
<title>G</title>
<polygon fill="white" stroke="none" points="-4,4 -4,-2388 390,-2388 390,4 -4,4"/>
<!-- n1 -->
<g id="node1" class="node"><title>n1</title>
<g id="a_node1"><a xlink:title="[[string &quot;&#45;&#45; I will start with the LeNet I build with N...&quot;]]:28_">
<ellipse fill="none" stroke="black" cx="193" cy="-191" rx="118.13" ry="58.8803"/>
<text text-anchor="middle" x="193" y="-217.3" font-family="Times,serif" font-size="14.00">softMax (1)</text>
<text text-anchor="start" x="117.5" y="-202.3" font-family="Times,serif" font-size="14.00">input = {Tensor[10]}</text>
<text text-anchor="start" x="117.5" y="-187.3" font-family="Times,serif" font-size="14.00">module = nn.LogSoftMax</text>
<text text-anchor="start" x="117.5" y="-172.3" font-family="Times,serif" font-size="14.00">reverseMap = {}</text>
<text text-anchor="middle" x="193" y="-157.3" font-family="Times,serif" font-size="14.00">gradOutput = {Tensor[10]}</text>
</a>
</g>
</g>
<!-- n2 -->
<g id="node2" class="node"><title>n2</title>
<g id="a_node2"><a xlink:title="[[C]]:&#45;1_">
<ellipse fill="none" stroke="black" cx="193" cy="-48" rx="118.13" ry="48.1667"/>
<text text-anchor="middle" x="193" y="-66.8" font-family="Times,serif" font-size="14.00">Node2</text>
<text text-anchor="start" x="117.5" y="-51.8" font-family="Times,serif" font-size="14.00">input = {Tensor[10]}</text>
<text text-anchor="start" x="117.5" y="-36.8" font-family="Times,serif" font-size="14.00">reverseMap = {}</text>
<text text-anchor="middle" x="193" y="-21.8" font-family="Times,serif" font-size="14.00">gradOutput = {Tensor[10]}</text>
</a>
</g>
</g>
<!-- n1&#45;&gt;n2 -->
<g id="edge1" class="edge"><title>n1&#45;&gt;n2</title>
<path fill="none" stroke="black" d="M193,-132.243C193,-123.7 193,-114.899 193,-106.364"/>
<polygon fill="black" stroke="black" points="196.5,-106.121 193,-96.1209 189.5,-106.121 196.5,-106.121"/>
</g>
<!-- n3 -->
<g id="node3" class="node"><title>n3</title>
<g id="a_node3"><a xlink:title="[[string &quot;&#45;&#45; I will start with the LeNet I build with N...&quot;]]:27_">
<ellipse fill="none" stroke="black" cx="193" cy="-345" rx="128.54" ry="58.8803"/>
<text text-anchor="middle" x="193" y="-371.3" font-family="Times,serif" font-size="14.00">fullConnect3 (3)</text>
<text text-anchor="start" x="110" y="-356.3" font-family="Times,serif" font-size="14.00">input = {Tensor[84]}</text>
<text text-anchor="start" x="110" y="-341.3" font-family="Times,serif" font-size="14.00">module = nn.Linear(84 &#45;&gt; 10)</text>
<text text-anchor="start" x="110" y="-326.3" font-family="Times,serif" font-size="14.00">reverseMap = {}</text>
<text text-anchor="middle" x="193" y="-311.3" font-family="Times,serif" font-size="14.00">gradOutput = {Tensor[10]}</text>
</a>
</g>
</g>
<!-- n3&#45;&gt;n1 -->
<g id="edge2" class="edge"><title>n3&#45;&gt;n1</title>
<path fill="none" stroke="black" d="M193,-286.102C193,-277.539 193,-268.651 193,-259.907"/>
<polygon fill="black" stroke="black" points="196.5,-259.737 193,-249.737 189.5,-259.737 196.5,-259.737"/>
</g>
<!-- n4 -->
<g id="node4" class="node"><title>n4</title>
<g id="a_node4"><a xlink:title="[[string &quot;&#45;&#45; I will start with the LeNet I build with N...&quot;]]:25_">
<ellipse fill="none" stroke="black" cx="193" cy="-499" rx="118.13" ry="58.8803"/>
<text text-anchor="middle" x="193" y="-525.3" font-family="Times,serif" font-size="14.00">fullConnect2_a (4)</text>
<text text-anchor="start" x="117.5" y="-510.3" font-family="Times,serif" font-size="14.00">input = {Tensor[84]}</text>
<text text-anchor="start" x="117.5" y="-495.3" font-family="Times,serif" font-size="14.00">module = nn.ReLU</text>
<text text-anchor="start" x="117.5" y="-480.3" font-family="Times,serif" font-size="14.00">reverseMap = {}</text>
<text text-anchor="middle" x="193" y="-465.3" font-family="Times,serif" font-size="14.00">gradOutput = {Tensor[84]}</text>
</a>
</g>
</g>
<!-- n4&#45;&gt;n3 -->
<g id="edge3" class="edge"><title>n4&#45;&gt;n3</title>
<path fill="none" stroke="black" d="M193,-440.102C193,-431.539 193,-422.651 193,-413.907"/>
<polygon fill="black" stroke="black" points="196.5,-413.737 193,-403.737 189.5,-413.737 196.5,-413.737"/>
</g>
<!-- n5 -->
<g id="node5" class="node"><title>n5</title>
<g id="a_node5"><a xlink:title="[[string &quot;&#45;&#45; I will start with the LeNet I build with N...&quot;]]:24_">
<ellipse fill="none" stroke="black" cx="193" cy="-653" rx="133.465" ry="58.8803"/>
<text text-anchor="middle" x="193" y="-679.3" font-family="Times,serif" font-size="14.00">fullConnect2 (5)</text>
<text text-anchor="start" x="106.5" y="-664.3" font-family="Times,serif" font-size="14.00">input = {Tensor[120]}</text>
<text text-anchor="start" x="106.5" y="-649.3" font-family="Times,serif" font-size="14.00">module = nn.Linear(120 &#45;&gt; 84)</text>
<text text-anchor="start" x="106.5" y="-634.3" font-family="Times,serif" font-size="14.00">reverseMap = {}</text>
<text text-anchor="middle" x="193" y="-619.3" font-family="Times,serif" font-size="14.00">gradOutput = {Tensor[84]}</text>
</a>
</g>
</g>
<!-- n5&#45;&gt;n4 -->
<g id="edge4" class="edge"><title>n5&#45;&gt;n4</title>
<path fill="none" stroke="black" d="M193,-594.102C193,-585.539 193,-576.651 193,-567.907"/>
<polygon fill="black" stroke="black" points="196.5,-567.737 193,-557.737 189.5,-567.737 196.5,-567.737"/>
</g>
<!-- n6 -->
<g id="node6" class="node"><title>n6</title>
<g id="a_node6"><a xlink:title="[[string &quot;&#45;&#45; I will start with the LeNet I build with N...&quot;]]:22_">
<ellipse fill="none" stroke="black" cx="193" cy="-807" rx="123.055" ry="58.8803"/>
<text text-anchor="middle" x="193" y="-833.3" font-family="Times,serif" font-size="14.00">fullConnect1_a (6)</text>
<text text-anchor="start" x="114" y="-818.3" font-family="Times,serif" font-size="14.00">input = {Tensor[120]}</text>
<text text-anchor="start" x="114" y="-803.3" font-family="Times,serif" font-size="14.00">module = nn.ReLU</text>
<text text-anchor="start" x="114" y="-788.3" font-family="Times,serif" font-size="14.00">reverseMap = {}</text>
<text text-anchor="middle" x="193" y="-773.3" font-family="Times,serif" font-size="14.00">gradOutput = {Tensor[120]}</text>
</a>
</g>
</g>
<!-- n6&#45;&gt;n5 -->
<g id="edge5" class="edge"><title>n6&#45;&gt;n5</title>
<path fill="none" stroke="black" d="M193,-748.102C193,-739.539 193,-730.651 193,-721.907"/>
<polygon fill="black" stroke="black" points="196.5,-721.737 193,-711.737 189.5,-721.737 196.5,-721.737"/>
</g>
<!-- n7 -->
<g id="node7" class="node"><title>n7</title>
<g id="a_node7"><a xlink:title="[[string &quot;&#45;&#45; I will start with the LeNet I build with N...&quot;]]:21_">
<ellipse fill="none" stroke="black" cx="193" cy="-961" rx="138.389" ry="58.8803"/>
<text text-anchor="middle" x="193" y="-987.3" font-family="Times,serif" font-size="14.00">fullConnect1 (7)</text>
<text text-anchor="start" x="103" y="-972.3" font-family="Times,serif" font-size="14.00">input = {Tensor[400]}</text>
<text text-anchor="start" x="103" y="-957.3" font-family="Times,serif" font-size="14.00">module = nn.Linear(400 &#45;&gt; 120)</text>
<text text-anchor="start" x="103" y="-942.3" font-family="Times,serif" font-size="14.00">reverseMap = {}</text>
<text text-anchor="middle" x="193" y="-927.3" font-family="Times,serif" font-size="14.00">gradOutput = {Tensor[120]}</text>
</a>
</g>
</g>
<!-- n7&#45;&gt;n6 -->
<g id="edge6" class="edge"><title>n7&#45;&gt;n6</title>
<path fill="none" stroke="black" d="M193,-902.102C193,-893.539 193,-884.651 193,-875.907"/>
<polygon fill="black" stroke="black" points="196.5,-875.737 193,-865.737 189.5,-875.737 196.5,-875.737"/>
</g>
<!-- n8 -->
<g id="node8" class="node"><title>n8</title>
<g id="a_node8"><a xlink:title="[[string &quot;&#45;&#45; I will start with the LeNet I build with N...&quot;]]:19_">
<ellipse fill="none" stroke="black" cx="193" cy="-1115" rx="123.055" ry="58.8803"/>
<text text-anchor="middle" x="193" y="-1141.3" font-family="Times,serif" font-size="14.00">reshape (8)</text>
<text text-anchor="start" x="114" y="-1126.3" font-family="Times,serif" font-size="14.00">input = {Tensor[16x5x5]}</text>
<text text-anchor="start" x="114" y="-1111.3" font-family="Times,serif" font-size="14.00">module = nn.View(400)</text>
<text text-anchor="start" x="114" y="-1096.3" font-family="Times,serif" font-size="14.00">reverseMap = {}</text>
<text text-anchor="middle" x="193" y="-1081.3" font-family="Times,serif" font-size="14.00">gradOutput = {Tensor[400]}</text>
</a>
</g>
</g>
<!-- n8&#45;&gt;n7 -->
<g id="edge7" class="edge"><title>n8&#45;&gt;n7</title>
<path fill="none" stroke="black" d="M193,-1056.1C193,-1047.54 193,-1038.65 193,-1029.91"/>
<polygon fill="black" stroke="black" points="196.5,-1029.74 193,-1019.74 189.5,-1029.74 196.5,-1029.74"/>
</g>
<!-- n9 -->
<g id="node9" class="node"><title>n9</title>
<g id="a_node9"><a xlink:title="[[string &quot;&#45;&#45; I will start with the LeNet I build with N...&quot;]]:17_">
<ellipse fill="none" stroke="black" cx="193" cy="-1269" rx="176.166" ry="58.8803"/>
<text text-anchor="middle" x="193" y="-1295.3" font-family="Times,serif" font-size="14.00">pool2 (9)</text>
<text text-anchor="start" x="76" y="-1280.3" font-family="Times,serif" font-size="14.00">input = {Tensor[16x10x10]}</text>
<text text-anchor="start" x="76" y="-1265.3" font-family="Times,serif" font-size="14.00">module = nn.SpatialMaxPooling(2x2, 2,2)</text>
<text text-anchor="start" x="76" y="-1250.3" font-family="Times,serif" font-size="14.00">reverseMap = {}</text>
<text text-anchor="middle" x="193" y="-1235.3" font-family="Times,serif" font-size="14.00">gradOutput = {Tensor[16x5x5]}</text>
</a>
</g>
</g>
<!-- n9&#45;&gt;n8 -->
<g id="edge8" class="edge"><title>n9&#45;&gt;n8</title>
<path fill="none" stroke="black" d="M193,-1210.1C193,-1201.54 193,-1192.65 193,-1183.91"/>
<polygon fill="black" stroke="black" points="196.5,-1183.74 193,-1173.74 189.5,-1183.74 196.5,-1183.74"/>
</g>
<!-- n10 -->
<g id="node10" class="node"><title>n10</title>
<g id="a_node10"><a xlink:title="[[string &quot;&#45;&#45; I will start with the LeNet I build with N...&quot;]]:16_">
<ellipse fill="none" stroke="black" cx="193" cy="-1423" rx="147.117" ry="58.8803"/>
<text text-anchor="middle" x="193" y="-1449.3" font-family="Times,serif" font-size="14.00">conv2_a (10)</text>
<text text-anchor="start" x="97" y="-1434.3" font-family="Times,serif" font-size="14.00">input = {Tensor[16x10x10]}</text>
<text text-anchor="start" x="97" y="-1419.3" font-family="Times,serif" font-size="14.00">module = nn.ReLU</text>
<text text-anchor="start" x="97" y="-1404.3" font-family="Times,serif" font-size="14.00">reverseMap = {}</text>
<text text-anchor="middle" x="193" y="-1389.3" font-family="Times,serif" font-size="14.00">gradOutput = {Tensor[16x10x10]}</text>
</a>
</g>
</g>
<!-- n10&#45;&gt;n9 -->
<g id="edge9" class="edge"><title>n10&#45;&gt;n9</title>
<path fill="none" stroke="black" d="M193,-1364.1C193,-1355.54 193,-1346.65 193,-1337.91"/>
<polygon fill="black" stroke="black" points="196.5,-1337.74 193,-1327.74 189.5,-1337.74 196.5,-1337.74"/>
</g>
<!-- n11 -->
<g id="node11" class="node"><title>n11</title>
<g id="a_node11"><a xlink:title="[[string &quot;&#45;&#45; I will start with the LeNet I build with N...&quot;]]:15_">
<ellipse fill="none" stroke="black" cx="193" cy="-1577" rx="193.06" ry="58.8803"/>
<text text-anchor="middle" x="193" y="-1603.3" font-family="Times,serif" font-size="14.00">conv2 (11)</text>
<text text-anchor="start" x="64.5" y="-1588.3" font-family="Times,serif" font-size="14.00">input = {Tensor[6x14x14]}</text>
<text text-anchor="start" x="64.5" y="-1573.3" font-family="Times,serif" font-size="14.00">module = nn.SpatialConvolution(6 &#45;&gt; 16, 5x5)</text>
<text text-anchor="start" x="64.5" y="-1558.3" font-family="Times,serif" font-size="14.00">reverseMap = {}</text>
<text text-anchor="middle" x="193" y="-1543.3" font-family="Times,serif" font-size="14.00">gradOutput = {Tensor[16x10x10]}</text>
</a>
</g>
</g>
<!-- n11&#45;&gt;n10 -->
<g id="edge10" class="edge"><title>n11&#45;&gt;n10</title>
<path fill="none" stroke="black" d="M193,-1518.1C193,-1509.54 193,-1500.65 193,-1491.91"/>
<polygon fill="black" stroke="black" points="196.5,-1491.74 193,-1481.74 189.5,-1491.74 196.5,-1491.74"/>
</g>
<!-- n12 -->
<g id="node12" class="node"><title>n12</title>
<g id="a_node12"><a xlink:title="[[string &quot;&#45;&#45; I will start with the LeNet I build with N...&quot;]]:13_">
<ellipse fill="none" stroke="black" cx="193" cy="-1731" rx="176.166" ry="58.8803"/>
<text text-anchor="middle" x="193" y="-1757.3" font-family="Times,serif" font-size="14.00">pool1 (12)</text>
<text text-anchor="start" x="76" y="-1742.3" font-family="Times,serif" font-size="14.00">input = {Tensor[6x28x28]}</text>
<text text-anchor="start" x="76" y="-1727.3" font-family="Times,serif" font-size="14.00">module = nn.SpatialMaxPooling(2x2, 2,2)</text>
<text text-anchor="start" x="76" y="-1712.3" font-family="Times,serif" font-size="14.00">reverseMap = {}</text>
<text text-anchor="middle" x="193" y="-1697.3" font-family="Times,serif" font-size="14.00">gradOutput = {Tensor[6x14x14]}</text>
</a>
</g>
</g>
<!-- n12&#45;&gt;n11 -->
<g id="edge11" class="edge"><title>n12&#45;&gt;n11</title>
<path fill="none" stroke="black" d="M193,-1672.1C193,-1663.54 193,-1654.65 193,-1645.91"/>
<polygon fill="black" stroke="black" points="196.5,-1645.74 193,-1635.74 189.5,-1645.74 196.5,-1645.74"/>
</g>
<!-- n13 -->
<g id="node13" class="node"><title>n13</title>
<g id="a_node13"><a xlink:title="[[string &quot;&#45;&#45; I will start with the LeNet I build with N...&quot;]]:12_">
<ellipse fill="none" stroke="black" cx="193" cy="-1885" rx="142.193" ry="58.8803"/>
<text text-anchor="middle" x="193" y="-1911.3" font-family="Times,serif" font-size="14.00">conv1_a (13)</text>
<text text-anchor="start" x="100.5" y="-1896.3" font-family="Times,serif" font-size="14.00">input = {Tensor[6x28x28]}</text>
<text text-anchor="start" x="100.5" y="-1881.3" font-family="Times,serif" font-size="14.00">module = nn.ReLU</text>
<text text-anchor="start" x="100.5" y="-1866.3" font-family="Times,serif" font-size="14.00">reverseMap = {}</text>
<text text-anchor="middle" x="193" y="-1851.3" font-family="Times,serif" font-size="14.00">gradOutput = {Tensor[6x28x28]}</text>
</a>
</g>
</g>
<!-- n13&#45;&gt;n12 -->
<g id="edge12" class="edge"><title>n13&#45;&gt;n12</title>
<path fill="none" stroke="black" d="M193,-1826.1C193,-1817.54 193,-1808.65 193,-1799.91"/>
<polygon fill="black" stroke="black" points="196.5,-1799.74 193,-1789.74 189.5,-1799.74 196.5,-1799.74"/>
</g>
<!-- n14 -->
<g id="node14" class="node"><title>n14</title>
<g id="a_node14"><a xlink:title="[[string &quot;&#45;&#45; I will start with the LeNet I build with N...&quot;]]:11_">
<ellipse fill="none" stroke="black" cx="193" cy="-2039" rx="188.136" ry="58.8803"/>
<text text-anchor="middle" x="193" y="-2065.3" font-family="Times,serif" font-size="14.00">conv1 (14)</text>
<text text-anchor="start" x="68" y="-2050.3" font-family="Times,serif" font-size="14.00">input = {Tensor[3x32x32]}</text>
<text text-anchor="start" x="68" y="-2035.3" font-family="Times,serif" font-size="14.00">module = nn.SpatialConvolution(3 &#45;&gt; 6, 5x5)</text>
<text text-anchor="start" x="68" y="-2020.3" font-family="Times,serif" font-size="14.00">reverseMap = {}</text>
<text text-anchor="middle" x="193" y="-2005.3" font-family="Times,serif" font-size="14.00">gradOutput = {Tensor[6x28x28]}</text>
</a>
</g>
</g>
<!-- n14&#45;&gt;n13 -->
<g id="edge13" class="edge"><title>n14&#45;&gt;n13</title>
<path fill="none" stroke="black" d="M193,-1980.1C193,-1971.54 193,-1962.65 193,-1953.91"/>
<polygon fill="black" stroke="black" points="196.5,-1953.74 193,-1943.74 189.5,-1953.74 196.5,-1953.74"/>
</g>
<!-- n15 -->
<g id="node15" class="node"><title>n15</title>
<g id="a_node15"><a xlink:title="[[string &quot;&#45;&#45; I will start with the LeNet I build with N...&quot;]]:7_">
<ellipse fill="none" stroke="black" cx="193" cy="-2193" rx="142.193" ry="58.8803"/>
<text text-anchor="middle" x="193" y="-2219.3" font-family="Times,serif" font-size="14.00">input (15)</text>
<text text-anchor="start" x="100.5" y="-2204.3" font-family="Times,serif" font-size="14.00">input = {Tensor[3x32x32]}</text>
<text text-anchor="start" x="100.5" y="-2189.3" font-family="Times,serif" font-size="14.00">module = nn.Identity</text>
<text text-anchor="start" x="100.5" y="-2174.3" font-family="Times,serif" font-size="14.00">reverseMap = {}</text>
<text text-anchor="middle" x="193" y="-2159.3" font-family="Times,serif" font-size="14.00">gradOutput = {Tensor[3x32x32]}</text>
</a>
</g>
</g>
<!-- n15&#45;&gt;n14 -->
<g id="edge14" class="edge"><title>n15&#45;&gt;n14</title>
<path fill="none" stroke="black" d="M193,-2134.1C193,-2125.54 193,-2116.65 193,-2107.91"/>
<polygon fill="black" stroke="black" points="196.5,-2107.74 193,-2097.74 189.5,-2107.74 196.5,-2107.74"/>
</g>
<!-- n16 -->
<g id="node16" class="node"><title>n16</title>
<g id="a_node16"><a xlink:title="[[C]]:&#45;1_">
<ellipse fill="none" stroke="black" cx="193" cy="-2336" rx="142.193" ry="48.1667"/>
<text text-anchor="middle" x="193" y="-2354.8" font-family="Times,serif" font-size="14.00">Node16</text>
<text text-anchor="start" x="100.5" y="-2339.8" font-family="Times,serif" font-size="14.00">input = {Tensor[3x32x32]}</text>
<text text-anchor="start" x="100.5" y="-2324.8" font-family="Times,serif" font-size="14.00">reverseMap = {}</text>
<text text-anchor="middle" x="193" y="-2309.8" font-family="Times,serif" font-size="14.00">gradOutput = {Tensor[3x32x32]}</text>
</a>
</g>
</g>
<!-- n16&#45;&gt;n15 -->
<g id="edge15" class="edge"><title>n16&#45;&gt;n15</title>
<path fill="none" stroke="black" d="M193,-2287.66C193,-2279.38 193,-2270.62 193,-2261.91"/>
<polygon fill="black" stroke="black" points="196.5,-2261.74 193,-2251.74 189.5,-2261.74 196.5,-2261.74"/>
</g>
</g>
</svg>
